# xmcd
#
# Track frame offsets:
#	150
#	18266
#	36714
#	54245
#	70743
#	88657
#	108384
#	125166
#	140312
#	159499
#	178997
#	193319
#	214610
#	231259
#	249778
#
# Disc length: 3615 seconds
#
# Revision: 0
# Processed by: cddbd v1.5.1PL2 Copyright (c) Steve Scherf et al.
# Submitted via: audiograbber 1.83.01
#
DISCID=d60e1d0f
DTITLE=Sound Choice - sc
DYEAR=1900
DGENRE=Karaoke Country
TTITLE0=McEntire, Reba - Heart Is A Lonely Hunter
TTITLE1=Diamond Rio - Workin' Man Blues
TTITLE2=Stewart, Larry - Losing Your Love
TTITLE3=McCoy, Neil - For A Chance
TTITLE4=Blackhawk - Down In Flames
TTITLE5=Ducas, George - Lipstick Promises
TTITLE6=Alabama - Give Me One More Shot
TTITLE7=Tucker, Tanya - Between The Two Of Them
TTITLE8=Mellons, Ken - I Can Bring Her Back
TTITLE9=House, James - Little By Little
TTITLE10=Ketcham, Hal - Stay Forever
TTITLE11=Jackson, Alan - Song For The Life
TTITLE12=Martin, Marylyn - Through His Eyes
TTITLE13=Trevino, Rick - Looking For The Light
TTITLE14=Krauss, Allison - When You Say Nothing At All
EXTD=
EXTT0=
EXTT1=
EXTT2=
EXTT3=
EXTT4=
EXTT5=
EXTT6=
EXTT7=
EXTT8=
EXTT9=
EXTT10=
EXTT11=
EXTT12=
EXTT13=
EXTT14=
PLAYORDER=
